<svg width="51" height="52" viewBox="0 0 51 52" fill="none" xmlns="http://www.w3.org/2000/svg">
<rect x="3.1875" y="19.625" width="44.625" height="28.6875" rx="6.375" fill="#CCFFDC"/>
<rect x="9.5625" y="32.375" width="9.5625" height="9.5625" rx="2.125" fill="#10A142"/>
<path d="M35.0625 9.26562C35.0625 10.5859 36.1328 11.6562 37.4531 11.6562C38.7734 11.6562 39.8438 10.5859 39.8438 9.26562V6.875H43.5625C45.9097 6.875 47.8125 8.77779 47.8125 11.125V12.1875C47.8125 14.5347 45.9097 16.4375 43.5625 16.4375H7.4375C5.09029 16.4375 3.1875 14.5347 3.1875 12.1875V11.125C3.1875 8.77779 5.09029 6.875 7.4375 6.875H11.1562V9.26562C11.1562 10.5859 12.2266 11.6562 13.5469 11.6562C14.8672 11.6562 15.9375 10.5859 15.9375 9.26562V6.875H35.0625V9.26562Z" fill="#10A142"/>
</svg>
