<svg width="82" height="80" viewBox="0 0 82 80" fill="none" xmlns="http://www.w3.org/2000/svg">
<path d="M47.8441 49.7012L47.844 79.9997L40.0243 74.7592L40.0244 49.7012L47.8441 49.7012Z" fill="#EE4439"/>
<path d="M30.0141 49.7012L30.014 74.7592L22.1932 79.9997L22.1934 49.7012L30.0141 49.7012Z" fill="#EE4439"/>
<path d="M40.0236 49.7007L40.0235 74.7592L35.0185 71.402L30.0136 74.7592L30.0137 49.7007L40.0236 49.7007Z" fill="#FFE4E4"/>
<path d="M41.202 2.40666L36.5683 3.89666C35.5716 4.22023 34.4914 4.22023 33.4902 3.90109L28.8609 2.41456C26.8088 1.75562 24.563 2.47997 23.2925 4.20797L20.4335 8.10605C19.8174 8.9494 18.9444 9.57589 17.9472 9.89946L13.3134 11.3939C11.2658 12.0528 9.87561 13.9451 9.87562 16.0822L9.8801 20.9013C9.8801 21.9414 9.5487 22.9563 8.93258 23.8002L6.07362 27.6983C4.80363 29.4263 4.80761 31.768 6.07761 33.4915L8.94107 37.3896C9.56116 38.2334 9.89257 39.2445 9.89257 40.2884L9.89656 45.1036C9.90104 47.2407 11.2908 49.133 13.3428 49.7914L17.9726 51.278C18.9738 51.5971 19.8463 52.2236 20.4669 53.0674L23.3299 56.9616C24.5999 58.6891 26.8462 59.4095 28.8983 58.751L33.5276 57.2561C34.5288 56.9365 35.605 56.932 36.6062 57.2561L41.239 58.7421C43.2915 59.4016 45.5378 58.6762 46.8039 56.9487L49.6623 53.0467C50.2829 52.2034 51.1519 51.5769 52.1531 51.2533L56.7824 49.7628C58.8345 49.0994 60.2247 47.2082 60.2202 45.071L60.2162 40.2514C60.2162 39.2114 60.5511 38.1959 61.1677 37.357L64.0262 33.4545C65.2922 31.727 65.2922 29.3887 64.0227 27.6607L61.1598 23.7632C60.5392 22.9237 60.2038 21.9083 60.2038 20.8683L60.1998 16.0491C60.1998 13.9115 58.8095 12.0203 56.7575 11.3653L52.1237 9.87872C51.1225 9.55515 50.254 8.92867 49.6334 8.08975L46.7704 4.19168C45.8155 2.89249 44.306 2.16274 42.7448 2.16274C42.2301 2.16275 41.7098 2.24192 41.202 2.40666Z" fill="url(#paint0_linear_186_206)"/>
<path d="M14.3145 30.9445C14.3145 41.938 23.3585 50.8882 34.4665 50.8882C45.5749 50.8882 54.6184 41.9379 54.6184 30.9444C54.6183 19.9509 45.5748 11.0007 34.4664 11.0007C23.3584 11.0007 14.3145 19.951 14.3145 30.9445Z" fill="url(#paint1_linear_186_206)"/>
<path d="M34.4669 9.65351C22.5834 9.65354 12.9541 19.1836 12.9542 30.9447C12.9542 42.7063 22.5835 52.2358 34.4671 52.2358C46.3506 52.2358 55.9799 42.7062 55.9798 30.9446C55.9798 19.1835 46.3505 9.65348 34.4669 9.65351ZM34.4671 50.1503C23.7705 50.1503 15.0614 41.5315 15.0614 30.9447C15.0613 20.3584 23.7704 11.7395 34.467 11.7395C45.164 11.7395 53.8726 20.3583 53.8726 30.9446C53.8727 41.5314 45.1641 50.1503 34.4671 50.1503Z" fill="white"/>
<path d="M34.4661 8.83466C22.1254 8.83469 12.126 18.7306 12.126 30.9441C12.1261 43.1581 22.1255 53.0545 34.4662 53.0545C46.8069 53.0545 56.8063 43.158 56.8063 30.944C56.8063 18.7305 46.8068 8.83463 34.4661 8.83466ZM34.4662 50.8883C23.3583 50.8884 14.3143 41.9381 14.3142 30.9441C14.3142 19.9506 23.3582 11.0008 34.4661 11.0008C45.5746 11.0008 54.6181 19.9505 54.6181 30.944C54.6181 41.938 45.5747 50.8883 34.4662 50.8883Z" fill="#0B662A"/>
<path d="M47.2192 28.0574L29.3956 42.3913C28.7178 42.9367 27.7226 42.8418 27.1626 42.1784L20.7605 34.5927C19.959 33.6431 20.0877 32.2304 21.0477 31.4386C22.0071 30.6479 23.4331 30.7768 24.2321 31.7268L27.7609 35.9209C28.3203 36.5863 29.3161 36.6826 29.9948 36.1363L44.3647 24.5807C45.3346 23.8008 46.7596 23.9469 47.5476 24.9068C48.3362 25.8667 48.1891 27.2775 47.2192 28.0574Z" fill="#17AC4A"/>
<path d="M47.2192 26.4194L29.3956 40.7534C28.7178 41.2987 27.7226 41.2038 27.1626 40.5405L20.7605 32.9548C19.959 32.0052 20.0877 30.5924 21.0477 29.8007C22.0071 29.01 23.4331 29.1388 24.2321 30.0889L27.7609 34.283C28.3203 34.9483 29.3161 35.0447 29.9948 34.4984L44.3647 22.9428C45.3346 22.1629 46.7596 22.3089 47.5476 23.2688C48.3362 24.2287 48.1891 25.6395 47.2192 26.4194Z" fill="white"/>
<defs>
<linearGradient id="paint0_linear_186_206" x1="34.1605" y1="5.50173" x2="34.9256" y2="55.1684" gradientUnits="userSpaceOnUse">
<stop stop-color="#3EEA79"/>
<stop offset="0.48" stop-color="#27D763"/>
<stop offset="1" stop-color="#10A242"/>
</linearGradient>
<linearGradient id="paint1_linear_186_206" x1="34.5141" y1="10.2911" x2="35.0359" y2="51.3521" gradientUnits="userSpaceOnUse">
<stop stop-color="#23BD59"/>
<stop offset="0.48" stop-color="#128339"/>
<stop offset="1" stop-color="#065622"/>
</linearGradient>
</defs>
</svg>
