<svg width="33" height="46" viewBox="0 0 33 46" fill="none" xmlns="http://www.w3.org/2000/svg">
<path d="M5.39282 44H27.6831C29.6821 44 31.2723 42.3553 31.0572 40.4603C29.669 28.25 21.3841 28.4519 21.3841 23C21.3841 17.5481 29.775 17.851 31.0562 5.53971C31.2582 3.64365 29.6821 2 27.6831 2H5.39282C3.39378 2 1.82181 3.64365 2.01969 5.53971C3.3009 17.851 11.6918 17.4471 11.6918 23C11.6918 28.5529 3.4069 28.25 2.01969 40.4603C1.80364 42.3553 3.39378 44 5.39282 44Z" stroke="#E5C4F9" stroke-width="3.23077" stroke-linecap="round" stroke-linejoin="round"/>
<path d="M25.3526 40.7693H7.76815C6.19315 40.7693 5.74892 38.952 6.85344 37.8253C9.5269 35.1155 14.9233 33.175 14.9233 30.0674V19.7693C14.9233 17.7652 11.0868 16.2357 8.71315 12.9847C8.32142 12.4486 8.36079 11.6924 9.35627 11.6924H23.7665C24.6156 11.6924 24.7993 12.4425 24.4127 12.9796C22.0734 16.2357 18.1541 17.7551 18.1541 19.7693V30.0674C18.1541 33.1497 23.7786 34.8126 26.2714 37.8283C27.2759 39.0439 26.9246 40.7693 25.3526 40.7693Z" fill="#A601FF"/>
</svg>
