<svg width="73" height="52" viewBox="0 0 73 52" fill="none" xmlns="http://www.w3.org/2000/svg">
<path d="M46.4537 28.3884C47.1381 28.3884 47.7946 28.1165 48.2785 27.6325C48.7625 27.1485 49.0344 26.4921 49.0344 25.8076C49.0344 25.1231 48.7625 24.4667 48.2785 23.9827C47.7946 23.4987 47.1381 23.2268 46.4537 23.2268C45.7692 23.2268 45.1128 23.4987 44.6288 23.9827C44.1448 24.4667 43.8729 25.1231 43.8729 25.8076C43.8729 26.4921 44.1448 27.1485 44.6288 27.6325C45.1128 28.1165 45.7692 28.3884 46.4537 28.3884ZM0 12.9038C0 9.4815 1.3595 6.19937 3.77944 3.77944C6.19937 1.3595 9.4815 0 12.9038 0H59.3575C62.7798 0 66.0619 1.3595 68.4818 3.77944C70.9018 6.19937 72.2613 9.4815 72.2613 12.9038V38.7114C72.2613 42.1337 70.9018 45.4158 68.4818 47.8358C66.0619 50.2557 62.7798 51.6152 59.3575 51.6152H12.9038C9.4815 51.6152 6.19937 50.2557 3.77944 47.8358C1.3595 45.4158 0 42.1337 0 38.7114V12.9038ZM18.0653 15.4846C17.3809 15.4846 16.7244 15.7565 16.2404 16.2404C15.7565 16.7244 15.4846 17.3809 15.4846 18.0653V33.5499C15.4846 34.2343 15.7565 34.8908 16.2404 35.3748C16.7244 35.8587 17.3809 36.1306 18.0653 36.1306C18.7498 36.1306 19.4062 35.8587 19.8902 35.3748C20.3742 34.8908 20.6461 34.2343 20.6461 33.5499V18.0653C20.6461 17.3809 20.3742 16.7244 19.8902 16.2404C19.4062 15.7565 18.7498 15.4846 18.0653 15.4846ZM53.4424 29.1471C53.9409 28.1044 54.1996 26.9633 54.1996 25.8076C54.1996 24.6519 53.9409 23.5108 53.4424 22.4681L56.0231 19.8873C56.507 19.4027 56.7786 18.7458 56.7782 18.0609C56.7777 17.3761 56.5052 16.7195 56.0206 16.2356C55.536 15.7516 54.879 15.4801 54.1941 15.4805C53.5093 15.481 52.8527 15.7535 52.3688 16.2381L49.788 18.8189C48.746 18.3212 47.6059 18.0629 46.4511 18.0629C45.2963 18.0629 44.1562 18.3212 43.1142 18.8189L40.5334 16.2381C40.0488 15.7542 39.3918 15.4826 38.707 15.4831C38.0222 15.4836 37.3656 15.7561 36.8816 16.2407C36.3977 16.7253 36.1261 17.3823 36.1266 18.0671C36.1271 18.752 36.3996 19.4086 36.8842 19.8925L39.465 22.4733C38.9673 23.5153 38.709 24.6554 38.709 25.8102C38.709 26.9649 38.9673 28.1051 39.465 29.1471L36.8842 31.7279C36.6446 31.9678 36.4546 32.2526 36.3251 32.566C36.1955 32.8794 36.129 33.2152 36.1292 33.5543C36.1294 33.8934 36.1965 34.2291 36.3265 34.5423C36.4564 34.8555 36.6469 35.14 36.8868 35.3796C37.1267 35.6192 37.4115 35.8092 37.7249 35.9388C38.0383 36.0683 38.3741 36.1349 38.7132 36.1347C39.0523 36.1344 39.3881 36.0674 39.7012 35.9374C40.0144 35.8074 40.299 35.617 40.5386 35.3771L43.1193 32.7963C44.1613 33.294 45.3015 33.5523 46.4563 33.5523C47.611 33.5523 48.7512 33.294 49.7932 32.7963L52.3739 35.3771C52.8585 35.861 53.5155 36.1326 54.2004 36.1321C54.8852 36.1316 55.5418 35.8591 56.0257 35.3745C56.5096 34.8899 56.7812 34.2329 56.7807 33.5481C56.7802 32.8632 56.5077 32.2066 56.0231 31.7227L53.4424 29.1471Z" fill="white"/>
</svg>
