<svg width="102" height="73" viewBox="0 0 102 73" fill="none" xmlns="http://www.w3.org/2000/svg">
<path d="M65.2569 40.23C66.2184 40.23 67.1405 39.8481 67.8204 39.1682C68.5003 38.4883 68.8823 37.5662 68.8823 36.6047C68.8823 35.6431 68.5003 34.721 67.8204 34.0411C67.1405 33.3612 66.2184 32.9793 65.2569 32.9793C64.2954 32.9793 63.3732 33.3612 62.6933 34.0411C62.0135 34.721 61.6315 35.6431 61.6315 36.6047C61.6315 37.5662 62.0135 38.4883 62.6933 39.1682C63.3732 39.8481 64.2954 40.23 65.2569 40.23ZM0 18.4777C0 13.6702 1.90979 9.05954 5.30925 5.66008C8.7087 2.26062 13.3194 0.35083 18.1269 0.35083H83.3838C88.1913 0.35083 92.802 2.26062 96.2014 5.66008C99.6009 9.05954 101.511 13.6702 101.511 18.4777V54.7316C101.511 59.5391 99.6009 64.1498 96.2014 67.5492C92.802 70.9487 88.1913 72.8585 83.3838 72.8585H18.1269C13.3194 72.8585 8.7087 70.9487 5.30925 67.5492C1.90979 64.1498 0 59.5391 0 54.7316V18.4777ZM25.3777 22.1031C24.4162 22.1031 23.494 22.4851 22.8141 23.165C22.1343 23.8449 21.7523 24.767 21.7523 25.7285V47.4808C21.7523 48.4423 22.1343 49.3644 22.8141 50.0443C23.494 50.7242 24.4162 51.1062 25.3777 51.1062C26.3392 51.1062 27.2613 50.7242 27.9412 50.0443C28.6211 49.3644 29.0031 48.4423 29.0031 47.4808V25.7285C29.0031 24.767 28.6211 23.8449 27.9412 23.165C27.2613 22.4851 26.3392 22.1031 25.3777 22.1031ZM75.0744 41.2959C75.7747 39.8312 76.1382 38.2282 76.1382 36.6047C76.1382 34.9811 75.7747 33.3782 75.0744 31.9134L78.6998 28.288C79.3796 27.6073 79.7611 26.6844 79.7604 25.7223C79.7597 24.7603 79.3769 23.8379 78.6962 23.1581C78.0154 22.4783 77.0925 22.0968 76.1305 22.0975C75.1684 22.0982 74.246 22.481 73.5662 23.1617L69.9409 26.7871C68.4771 26.088 66.8754 25.7251 65.2533 25.7251C63.6311 25.7251 62.0294 26.088 60.5656 26.7871L56.9402 23.1617C56.2595 22.4819 55.3366 22.1004 54.3745 22.1011C53.4125 22.1018 52.4901 22.4846 51.8103 23.1654C51.1305 23.8461 50.749 24.769 50.7497 25.7311C50.7504 26.6931 51.1332 27.6155 51.814 28.2953L55.4393 31.9207C54.7402 33.3844 54.3773 34.9861 54.3773 36.6083C54.3773 38.2305 54.7402 39.8321 55.4393 41.2959L51.814 44.9213C51.4774 45.2584 51.2105 45.6584 51.0285 46.0986C50.8465 46.5389 50.753 47.0106 50.7533 47.487C50.7537 47.9633 50.8478 48.435 51.0304 48.8749C51.213 49.3149 51.4805 49.7146 51.8176 50.0512C52.1547 50.3878 52.5547 50.6547 52.995 50.8367C53.4352 51.0187 53.9069 51.1122 54.3833 51.1118C54.8596 51.1115 55.3313 51.0173 55.7712 50.8347C56.2112 50.6521 56.6109 50.3846 56.9475 50.0476L60.5729 46.4222C62.0367 47.1213 63.6383 47.4842 65.2605 47.4842C66.8827 47.4842 68.4843 47.1213 69.9481 46.4222L73.5735 50.0476C74.2542 50.7274 75.1772 51.1089 76.1392 51.1082C77.1013 51.1075 78.0236 50.7247 78.7034 50.0439C79.3832 49.3632 79.7647 48.4403 79.764 47.4782C79.7634 46.5162 79.3805 45.5938 78.6998 44.914L75.0744 41.2959Z" fill="#3981F7"/>
</svg>
